# xmcd
#
# Track frame offsets:
#	150
#	28006
#	47649
#	63855
#	79599
#	97958
#	122926
#	141206
#	168743
#	187125
#	212769
#	249143
#
# Disc length: 3685 seconds
#
# Revision: 1
# Processed by: cddbd v1.5.2PL0 Copyright (c) Steve Scherf et al.
# Submitted via: audiograbber 1.83.01
#
DISCID=a40e630c
DTITLE=Guy Forsyth - Live At Gruene Hall
DYEAR=2009
DGENRE=Americana
TTITLE0=Taxi
TTITLE1=When I Think About Love
TTITLE2=Saturday Night
TTITLE3=Should Have Been Raining
TTITLE4=Telephone Line
TTITLE5=Brownsville
TTITLE6=Piece of the Pie
TTITLE7=Econoline
TTITLE8=Hold On
TTITLE9=Good Time Man
TTITLE10=Mona
TTITLE11=Hard Pushin' Papa
EXTD=
EXTT0=
EXTT1=
EXTT2=
EXTT3=
EXTT4=
EXTT5=
EXTT6=
EXTT7=
EXTT8=
EXTT9=
EXTT10=
EXTT11=
PLAYORDER=
